<svg width="22" height="22" viewBox="0 0 22 22" fill="none" xmlns="http://www.w3.org/2000/svg">
<mask id="maskGetResponse" mask-type="alpha" maskUnits="userSpaceOnUse" x="0" y="6" width="22" height="13">
<path d="M22 18.1271C22 18.6089 21.5785 19 21.059 19H0.940666C0.420639 19 0 18.6089 0 18.1271V6.87409C0 6.39181 0.420639 6 0.940666 6H21.059C21.5785 6 22 6.39181 22 6.87409V18.1271Z" fill="#9EA3A8"/>
</mask>
<g mask="url(#maskGetResponse)">
<rect width="22" height="22" fill="#242748"/>
<path d="M21.7862 7C19.1809 10.804 15.1074 14.279 10.9208 14.1956C9.37779 14.1642 7.62527 13.7447 6.13186 12.6093C5.01595 11.7609 3.90254 10.4288 3.47942 8.54717C3.29119 8.54717 3.18448 8.54717 3.01295 8.54717C2.33426 8.54717 1.92989 9.10978 2.01008 9.6266C2.02781 9.7437 2.05202 9.88102 2.07616 10.0199C2.39399 11.863 3.56825 13.9354 5.51542 15.2752C7.02662 16.3149 8.90646 17.0053 10.95 17C14.6283 16.9894 18.5708 14.8142 22 9.17779V7.55301C22 7.34284 21.9185 7.15175 21.7862 7Z" fill="white"/>
</g>
</svg>
